# xmcd CD database file
#
# Track frame offsets:
#	183
#	39140
#	65068
#	93585
#	125005
#	164543
#
# Disc length: 2591 seconds
#
# Revision: 8
# Processed by: cddbd v1.5.1PL0 Copyright (c) Steve Scherf et al.
# Submitted via: CDex 1.51
#
DISCID=4f0a1d06
DTITLE=Michel Petrucciani - Cold Blues
DYEAR=1985
DGENRE=Jazz
TTITLE0=Beautiful But Why?
TTITLE1=Autumn Leaves
TTITLE2=Something Like This
TTITLE3=There Will Never Be Another You
TTITLE4=I Just Say Hello!
TTITLE5=Cold Blues
EXTD=Michel Petrucciani - piano\nRon McClure - bass\n\nOWL 042 CD\n YEAR: 1985
EXTT0=
EXTT1=
EXTT2=
EXTT3=
EXTT4=
EXTT5=
PLAYORDER=
